<?xml version="1.0" encoding="utf-8" standalone="no"?>
<!DOCTYPE svg PUBLIC "-//W3C//DTD SVG 1.1//EN"
  "http://www.w3.org/Graphics/SVG/1.1/DTD/svg11.dtd">
<svg xmlns:xlink="http://www.w3.org/1999/xlink" width="451.44pt" height="280.8pt" viewBox="0 0 451.44 280.8" xmlns="http://www.w3.org/2000/svg" version="1.1">
 <metadata>
  <rdf:RDF xmlns:dc="http://purl.org/dc/elements/1.1/" xmlns:cc="http://creativecommons.org/ns#" xmlns:rdf="http://www.w3.org/1999/02/22-rdf-syntax-ns#">
   <cc:Work>
    <dc:type rdf:resource="http://purl.org/dc/dcmitype/StillImage"/>
    <dc:format>image/svg+xml</dc:format>
    <dc:creator>
     <cc:Agent>
      <dc:title>EON paper renderer</dc:title>
     </cc:Agent>
    </dc:creator>
   </cc:Work>
  </rdf:RDF>
 </metadata>
 <defs>
  <style type="text/css">*{stroke-linejoin: round; stroke-linecap: butt}</style>
 </defs>
 <g id="figure_1">
  <g id="patch_1">
   <path d="M 0 280.8 
L 451.44 280.8 
L 451.44 0 
L 0 0 
z
" style="fill: #ffffff"/>
  </g>
  <g id="axes_1">
   <g id="patch_2">
    <path d="M 63.2016 65.988 
L 71.32752 65.988 
L 71.32752 56.16 
L 63.2016 56.16 
z
" clip-path="url(#p27f4e47a47)" style="fill: #126b70"/>
   </g>
   <g id="patch_3">
    <path d="M 146.718 65.988 
L 154.84392 65.988 
L 154.84392 56.16 
L 146.718 56.16 
z
" clip-path="url(#p27f4e47a47)" style="fill: #6fa8a8"/>
   </g>
   <g id="patch_4">
    <path d="M 198.6336 65.988 
L 206.75952 65.988 
L 206.75952 56.16 
L 198.6336 56.16 
z
" clip-path="url(#p27f4e47a47)" style="fill: #e9eded; stroke: #667174; stroke-width: 0.5; stroke-linejoin: miter"/>
   </g>
   <g id="patch_5">
    <path d="M 250.5492 65.988 
L 258.67512 65.988 
L 258.67512 56.16 
L 250.5492 56.16 
z
" clip-path="url(#p27f4e47a47)" style="fill: #d59a86"/>
   </g>
   <g id="patch_6">
    <path d="M 302.4648 65.988 
L 310.59072 65.988 
L 310.59072 56.16 
L 302.4648 56.16 
z
" clip-path="url(#p27f4e47a47)" style="fill: #a5472d"/>
   </g>
   <g id="text_1">
    <text style="font-weight: 700; font-size: 14px; font-family: 'DejaVu Sans'; text-anchor: start; fill: #263238" x="6.7716" y="23.597813" transform="rotate(-0 6.7716 23.597813)">Half of every vintage is HOLD</text>
   </g>
   <g id="text_2">
    <text style="font-size: 9px; font-family: 'DejaVu Sans'; text-anchor: start; fill: #667174" x="6.7716" y="42.118594" transform="rotate(-0 6.7716 42.118594)">Final verdicts by fiscal-year vintage  /  vintages with at least 400 dated readings</text>
   </g>
   <g id="text_3">
    <text style="font-size: 9px; font-family: 'DejaVu Sans'; text-anchor: start; fill: #263238" x="74.4876" y="63.552291" transform="rotate(-0 74.4876 63.552291)">Strong Buy</text>
   </g>
   <g id="text_4">
    <text style="font-size: 9px; font-family: 'DejaVu Sans'; text-anchor: start; fill: #263238" x="158.004" y="63.552291" transform="rotate(-0 158.004 63.552291)">Buy</text>
   </g>
   <g id="text_5">
    <text style="font-size: 9px; font-family: 'DejaVu Sans'; text-anchor: start; fill: #263238" x="209.9196" y="63.552642" transform="rotate(-0 209.9196 63.552642)">Hold</text>
   </g>
   <g id="text_6">
    <text style="font-size: 9px; font-family: 'DejaVu Sans'; text-anchor: start; fill: #263238" x="261.8352" y="63.552642" transform="rotate(-0 261.8352 63.552642)">Sell</text>
   </g>
   <g id="text_7">
    <text style="font-size: 9px; font-family: 'DejaVu Sans'; text-anchor: start; fill: #263238" x="313.7508" y="63.552642" transform="rotate(-0 313.7508 63.552642)">Strong Sell</text>
   </g>
   <g id="text_8">
    <text style="font-size: 9px; font-family: 'DejaVu Sans'; text-anchor: start; fill: #667174" x="6.7716" y="268.809891" transform="rotate(-0 6.7716 268.809891)">Source: evaluation/results.json. Vintage = fiscal-year label. Shares under 6% are unlabelled.</text>
   </g>
  </g>
  <g id="axes_2">
   <g id="patch_7">
    <path d="M 63.2016 224.64 
L 397.2672 224.64 
L 397.2672 84.24 
L 63.2016 84.24 
z
" style="fill: #ffffff"/>
   </g>
   <g id="matplotlib.axis_1"/>
   <g id="matplotlib.axis_2">
    <g id="ytick_1">
     <g id="line2d_1"/>
     <g id="text_9">
      <text style="font-size: 9px; font-family: 'DejaVu Sans'; text-anchor: end; fill: #667174" x="59.7016" y="101.081203" transform="rotate(-0 59.7016 101.081203)">FY2020</text>
     </g>
    </g>
    <g id="ytick_2">
     <g id="line2d_2"/>
     <g id="text_10">
      <text style="font-size: 9px; font-family: 'DejaVu Sans'; text-anchor: end; fill: #667174" x="59.7016" y="123.7923" transform="rotate(-0 59.7016 123.7923)">FY2021</text>
     </g>
    </g>
    <g id="ytick_3">
     <g id="line2d_3"/>
     <g id="text_11">
      <text style="font-size: 9px; font-family: 'DejaVu Sans'; text-anchor: end; fill: #667174" x="59.7016" y="146.503397" transform="rotate(-0 59.7016 146.503397)">FY2022</text>
     </g>
    </g>
    <g id="ytick_4">
     <g id="line2d_4"/>
     <g id="text_12">
      <text style="font-size: 9px; font-family: 'DejaVu Sans'; text-anchor: end; fill: #667174" x="59.7016" y="169.214494" transform="rotate(-0 59.7016 169.214494)">FY2023</text>
     </g>
    </g>
    <g id="ytick_5">
     <g id="line2d_5"/>
     <g id="text_13">
      <text style="font-size: 9px; font-family: 'DejaVu Sans'; text-anchor: end; fill: #667174" x="59.7016" y="191.92559" transform="rotate(-0 59.7016 191.92559)">FY2024</text>
     </g>
    </g>
    <g id="ytick_6">
     <g id="line2d_6"/>
     <g id="text_14">
      <text style="font-size: 9px; font-family: 'DejaVu Sans'; text-anchor: end; fill: #667174" x="59.7016" y="214.636687" transform="rotate(-0 59.7016 214.636687)">FY2025</text>
     </g>
    </g>
   </g>
   <g id="patch_8">
    <path d="M 63.2016 90.621818 
L 72.177662 90.621818 
L 72.177662 104.702698 
L 63.2016 104.702698 
z
" clip-path="url(#p6585f84a25)" style="fill: #126b70; stroke: #ffffff; stroke-width: 0.4; stroke-linejoin: miter"/>
   </g>
   <g id="patch_9">
    <path d="M 72.177662 90.621818 
L 172.085131 90.621818 
L 172.085131 104.702698 
L 72.177662 104.702698 
z
" clip-path="url(#p6585f84a25)" style="fill: #6fa8a8; stroke: #ffffff; stroke-width: 0.4; stroke-linejoin: miter"/>
   </g>
   <g id="patch_10">
    <path d="M 172.085131 90.621818 
L 339.117931 90.621818 
L 339.117931 104.702698 
L 172.085131 104.702698 
z
" clip-path="url(#p6585f84a25)" style="fill: #e9eded; stroke: #ffffff; stroke-width: 0.4; stroke-linejoin: miter"/>
   </g>
   <g id="patch_11">
    <path d="M 339.117931 90.621818 
L 389.852193 90.621818 
L 389.852193 104.702698 
L 339.117931 104.702698 
z
" clip-path="url(#p6585f84a25)" style="fill: #d59a86; stroke: #ffffff; stroke-width: 0.4; stroke-linejoin: miter"/>
   </g>
   <g id="patch_12">
    <path d="M 389.852193 90.621818 
L 397.2672 90.621818 
L 397.2672 104.702698 
L 389.852193 104.702698 
z
" clip-path="url(#p6585f84a25)" style="fill: #a5472d; stroke: #ffffff; stroke-width: 0.4; stroke-linejoin: miter"/>
   </g>
   <g id="patch_13">
    <path d="M 63.2016 113.332915 
L 78.066979 113.332915 
L 78.066979 127.413795 
L 63.2016 127.413795 
z
" clip-path="url(#p6585f84a25)" style="fill: #126b70; stroke: #ffffff; stroke-width: 0.4; stroke-linejoin: miter"/>
   </g>
   <g id="patch_14">
    <path d="M 78.066979 113.332915 
L 155.637227 113.332915 
L 155.637227 127.413795 
L 78.066979 127.413795 
z
" clip-path="url(#p6585f84a25)" style="fill: #6fa8a8; stroke: #ffffff; stroke-width: 0.4; stroke-linejoin: miter"/>
   </g>
   <g id="patch_15">
    <path d="M 155.637227 113.332915 
L 326.724221 113.332915 
L 326.724221 127.413795 
L 155.637227 127.413795 
z
" clip-path="url(#p6585f84a25)" style="fill: #e9eded; stroke: #ffffff; stroke-width: 0.4; stroke-linejoin: miter"/>
   </g>
   <g id="patch_16">
    <path d="M 326.724221 113.332915 
L 394.294124 113.332915 
L 394.294124 127.413795 
L 326.724221 127.413795 
z
" clip-path="url(#p6585f84a25)" style="fill: #d59a86; stroke: #ffffff; stroke-width: 0.4; stroke-linejoin: miter"/>
   </g>
   <g id="patch_17">
    <path d="M 394.294124 113.332915 
L 397.2672 113.332915 
L 397.2672 127.413795 
L 394.294124 127.413795 
z
" clip-path="url(#p6585f84a25)" style="fill: #a5472d; stroke: #ffffff; stroke-width: 0.4; stroke-linejoin: miter"/>
   </g>
   <g id="patch_18">
    <path d="M 63.2016 136.044012 
L 82.961001 136.044012 
L 82.961001 150.124892 
L 63.2016 150.124892 
z
" clip-path="url(#p6585f84a25)" style="fill: #126b70; stroke: #ffffff; stroke-width: 0.4; stroke-linejoin: miter"/>
   </g>
   <g id="patch_19">
    <path d="M 82.961001 136.044012 
L 178.859958 136.044012 
L 178.859958 150.124892 
L 82.961001 150.124892 
z
" clip-path="url(#p6585f84a25)" style="fill: #6fa8a8; stroke: #ffffff; stroke-width: 0.4; stroke-linejoin: miter"/>
   </g>
   <g id="patch_20">
    <path d="M 178.859958 136.044012 
L 339.306291 136.044012 
L 339.306291 150.124892 
L 178.859958 150.124892 
z
" clip-path="url(#p6585f84a25)" style="fill: #e9eded; stroke: #ffffff; stroke-width: 0.4; stroke-linejoin: miter"/>
   </g>
   <g id="patch_21">
    <path d="M 339.306291 136.044012 
L 391.998026 136.044012 
L 391.998026 150.124892 
L 339.306291 150.124892 
z
" clip-path="url(#p6585f84a25)" style="fill: #d59a86; stroke: #ffffff; stroke-width: 0.4; stroke-linejoin: miter"/>
   </g>
   <g id="patch_22">
    <path d="M 391.998026 136.044012 
L 397.2672 136.044012 
L 397.2672 150.124892 
L 391.998026 150.124892 
z
" clip-path="url(#p6585f84a25)" style="fill: #a5472d; stroke: #ffffff; stroke-width: 0.4; stroke-linejoin: miter"/>
   </g>
   <g id="patch_23">
    <path d="M 63.2016 158.755108 
L 74.858132 158.755108 
L 74.858132 172.835988 
L 63.2016 172.835988 
z
" clip-path="url(#p6585f84a25)" style="fill: #126b70; stroke: #ffffff; stroke-width: 0.4; stroke-linejoin: miter"/>
   </g>
   <g id="patch_24">
    <path d="M 74.858132 158.755108 
L 175.528178 158.755108 
L 175.528178 172.835988 
L 74.858132 172.835988 
z
" clip-path="url(#p6585f84a25)" style="fill: #6fa8a8; stroke: #ffffff; stroke-width: 0.4; stroke-linejoin: miter"/>
   </g>
   <g id="patch_25">
    <path d="M 175.528178 158.755108 
L 346.932177 158.755108 
L 346.932177 172.835988 
L 175.528178 172.835988 
z
" clip-path="url(#p6585f84a25)" style="fill: #e9eded; stroke: #ffffff; stroke-width: 0.4; stroke-linejoin: miter"/>
   </g>
   <g id="patch_26">
    <path d="M 346.932177 158.755108 
L 392.498619 158.755108 
L 392.498619 172.835988 
L 346.932177 172.835988 
z
" clip-path="url(#p6585f84a25)" style="fill: #d59a86; stroke: #ffffff; stroke-width: 0.4; stroke-linejoin: miter"/>
   </g>
   <g id="patch_27">
    <path d="M 392.498619 158.755108 
L 397.2672 158.755108 
L 397.2672 172.835988 
L 392.498619 172.835988 
z
" clip-path="url(#p6585f84a25)" style="fill: #a5472d; stroke: #ffffff; stroke-width: 0.4; stroke-linejoin: miter"/>
   </g>
   <g id="patch_28">
    <path d="M 63.2016 181.466205 
L 71.501366 181.466205 
L 71.501366 195.547085 
L 63.2016 195.547085 
z
" clip-path="url(#p6585f84a25)" style="fill: #126b70; stroke: #ffffff; stroke-width: 0.4; stroke-linejoin: miter"/>
   </g>
   <g id="patch_29">
    <path d="M 71.501366 181.466205 
L 163.576901 181.466205 
L 163.576901 195.547085 
L 71.501366 195.547085 
z
" clip-path="url(#p6585f84a25)" style="fill: #6fa8a8; stroke: #ffffff; stroke-width: 0.4; stroke-linejoin: miter"/>
   </g>
   <g id="patch_30">
    <path d="M 163.576901 181.466205 
L 342.799983 181.466205 
L 342.799983 195.547085 
L 163.576901 195.547085 
z
" clip-path="url(#p6585f84a25)" style="fill: #e9eded; stroke: #ffffff; stroke-width: 0.4; stroke-linejoin: miter"/>
   </g>
   <g id="patch_31">
    <path d="M 342.799983 181.466205 
L 393.117317 181.466205 
L 393.117317 195.547085 
L 342.799983 195.547085 
z
" clip-path="url(#p6585f84a25)" style="fill: #d59a86; stroke: #ffffff; stroke-width: 0.4; stroke-linejoin: miter"/>
   </g>
   <g id="patch_32">
    <path d="M 393.117317 181.466205 
L 397.2672 181.466205 
L 397.2672 195.547085 
L 393.117317 195.547085 
z
" clip-path="url(#p6585f84a25)" style="fill: #a5472d; stroke: #ffffff; stroke-width: 0.4; stroke-linejoin: miter"/>
   </g>
   <g id="patch_33">
    <path d="M 63.2016 204.177302 
L 74.564376 204.177302 
L 74.564376 218.258182 
L 63.2016 218.258182 
z
" clip-path="url(#p6585f84a25)" style="fill: #126b70; stroke: #ffffff; stroke-width: 0.4; stroke-linejoin: miter"/>
   </g>
   <g id="patch_34">
    <path d="M 74.564376 204.177302 
L 154.861322 204.177302 
L 154.861322 218.258182 
L 74.564376 218.258182 
z
" clip-path="url(#p6585f84a25)" style="fill: #6fa8a8; stroke: #ffffff; stroke-width: 0.4; stroke-linejoin: miter"/>
   </g>
   <g id="patch_35">
    <path d="M 154.861322 204.177302 
L 320.757845 204.177302 
L 320.757845 218.258182 
L 154.861322 218.258182 
z
" clip-path="url(#p6585f84a25)" style="fill: #e9eded; stroke: #ffffff; stroke-width: 0.4; stroke-linejoin: miter"/>
   </g>
   <g id="patch_36">
    <path d="M 320.757845 204.177302 
L 392.72209 204.177302 
L 392.72209 218.258182 
L 320.757845 218.258182 
z
" clip-path="url(#p6585f84a25)" style="fill: #d59a86; stroke: #ffffff; stroke-width: 0.4; stroke-linejoin: miter"/>
   </g>
   <g id="patch_37">
    <path d="M 392.72209 204.177302 
L 397.2672 204.177302 
L 397.2672 218.258182 
L 392.72209 218.258182 
z
" clip-path="url(#p6585f84a25)" style="fill: #a5472d; stroke: #ffffff; stroke-width: 0.4; stroke-linejoin: miter"/>
   </g>
   <g id="text_15">
    <text style="font-size: 9px; font-family: 'DejaVu Sans'; text-anchor: middle; fill: #263238" x="122.131396" y="100.000149" transform="rotate(-0 122.131396 100.000149)">30%</text>
   </g>
   <g id="text_16">
    <text style="font-size: 9px; font-family: 'DejaVu Sans'; text-anchor: middle; fill: #263238" x="255.601531" y="100.000149" transform="rotate(-0 255.601531 100.000149)">50%</text>
   </g>
   <g id="text_17">
    <text style="font-size: 9px; font-family: 'DejaVu Sans'; text-anchor: middle; fill: #263238" x="364.485062" y="100.000149" transform="rotate(-0 364.485062 100.000149)">15%</text>
   </g>
   <g id="text_18">
    <text style="font-size: 9px; font-family: 'DejaVu Sans'; text-anchor: start; fill: #667174" x="400.607856" y="100.000149" transform="rotate(-0 400.607856 100.000149)">n = 856</text>
   </g>
   <g id="text_19">
    <text style="font-size: 9px; font-family: 'DejaVu Sans'; text-anchor: middle; fill: #263238" x="116.852103" y="122.711246" transform="rotate(-0 116.852103 122.711246)">23%</text>
   </g>
   <g id="text_20">
    <text style="font-size: 9px; font-family: 'DejaVu Sans'; text-anchor: middle; fill: #263238" x="241.180724" y="122.711246" transform="rotate(-0 241.180724 122.711246)">51%</text>
   </g>
   <g id="text_21">
    <text style="font-size: 9px; font-family: 'DejaVu Sans'; text-anchor: middle; fill: #263238" x="360.509173" y="122.711246" transform="rotate(-0 360.509173 122.711246)">20%</text>
   </g>
   <g id="text_22">
    <text style="font-size: 9px; font-family: 'DejaVu Sans'; text-anchor: start; fill: #667174" x="400.607856" y="122.711246" transform="rotate(-0 400.607856 122.711246)">n = 1,236</text>
   </g>
   <g id="text_23">
    <text style="font-size: 9px; font-family: 'DejaVu Sans'; text-anchor: middle; fill: #263238" x="130.910479" y="145.422342" transform="rotate(-0 130.910479 145.422342)">29%</text>
   </g>
   <g id="text_24">
    <text style="font-size: 9px; font-family: 'DejaVu Sans'; text-anchor: middle; fill: #263238" x="259.083125" y="145.422342" transform="rotate(-0 259.083125 145.422342)">48%</text>
   </g>
   <g id="text_25">
    <text style="font-size: 9px; font-family: 'DejaVu Sans'; text-anchor: middle; fill: #263238" x="365.652159" y="145.422342" transform="rotate(-0 365.652159 145.422342)">16%</text>
   </g>
   <g id="text_26">
    <text style="font-size: 9px; font-family: 'DejaVu Sans'; text-anchor: start; fill: #667174" x="400.607856" y="145.422342" transform="rotate(-0 400.607856 145.422342)">n = 1,268</text>
   </g>
   <g id="text_27">
    <text style="font-size: 9px; font-family: 'DejaVu Sans'; text-anchor: middle; fill: #263238" x="125.193155" y="168.133439" transform="rotate(-0 125.193155 168.133439)">30%</text>
   </g>
   <g id="text_28">
    <text style="font-size: 9px; font-family: 'DejaVu Sans'; text-anchor: middle; fill: #263238" x="261.230177" y="168.133439" transform="rotate(-0 261.230177 168.133439)">51%</text>
   </g>
   <g id="text_29">
    <text style="font-size: 9px; font-family: 'DejaVu Sans'; text-anchor: middle; fill: #263238" x="369.715398" y="168.133439" transform="rotate(-0 369.715398 168.133439)">14%</text>
   </g>
   <g id="text_30">
    <text style="font-size: 9px; font-family: 'DejaVu Sans'; text-anchor: start; fill: #667174" x="400.607856" y="168.133439" transform="rotate(-0 400.607856 168.133439)">n = 1,261</text>
   </g>
   <g id="text_31">
    <text style="font-size: 9px; font-family: 'DejaVu Sans'; text-anchor: middle; fill: #263238" x="117.539134" y="190.844536" transform="rotate(-0 117.539134 190.844536)">28%</text>
   </g>
   <g id="text_32">
    <text style="font-size: 9px; font-family: 'DejaVu Sans'; text-anchor: middle; fill: #263238" x="253.188442" y="190.844536" transform="rotate(-0 253.188442 190.844536)">54%</text>
   </g>
   <g id="text_33">
    <text style="font-size: 9px; font-family: 'DejaVu Sans'; text-anchor: middle; fill: #263238" x="367.95865" y="190.844536" transform="rotate(-0 367.95865 190.844536)">15%</text>
   </g>
   <g id="text_34">
    <text style="font-size: 9px; font-family: 'DejaVu Sans'; text-anchor: start; fill: #667174" x="400.607856" y="190.844536" transform="rotate(-0 400.607856 190.844536)">n = 1,288</text>
   </g>
   <g id="text_35">
    <text style="font-size: 9px; font-family: 'DejaVu Sans'; text-anchor: middle; fill: #263238" x="114.712849" y="213.555632" transform="rotate(-0 114.712849 213.555632)">24%</text>
   </g>
   <g id="text_36">
    <text style="font-size: 9px; font-family: 'DejaVu Sans'; text-anchor: middle; fill: #263238" x="237.809584" y="213.555632" transform="rotate(-0 237.809584 213.555632)">50%</text>
   </g>
   <g id="text_37">
    <text style="font-size: 9px; font-family: 'DejaVu Sans'; text-anchor: middle; fill: #263238" x="356.739967" y="213.555632" transform="rotate(-0 356.739967 213.555632)">22%</text>
   </g>
   <g id="text_38">
    <text style="font-size: 9px; font-family: 'DejaVu Sans'; text-anchor: start; fill: #667174" x="400.607856" y="213.555632" transform="rotate(-0 400.607856 213.555632)">n = 441</text>
   </g>
  </g>
 </g>
 <defs>
  <clipPath id="p27f4e47a47">
   <rect x="0" y="0" width="451.44" height="280.8"/>
  </clipPath>
  <clipPath id="p6585f84a25">
   <rect x="63.2016" y="84.24" width="334.0656" height="140.4"/>
  </clipPath>
 </defs>
</svg>
